<?xml version="1.0" encoding="iso-8859-1"?>
<!-- Generator: Adobe Illustrator 18.1.1, SVG Export Plug-In . SVG Version: 6.00 Build 0)  -->
<svg version="1.1" id="Capa_1" xmlns="http://www.w3.org/2000/svg" xmlns:xlink="http://www.w3.org/1999/xlink" x="0px" y="0px"
	 viewBox="0 0 45.65 45.65" style="enable-background:new 0 0 45.65 45.65;" xml:space="preserve">
<g>
	<path style="fill:#010002;" d="M22.824,45.65c12.586,0,22.825-10.24,22.825-22.826C45.65,10.239,35.41,0,22.824,0
		C10.239,0,0,10.239,0,22.825C0.001,35.411,10.239,45.65,22.824,45.65z M22.824,1.25c11.896,0,21.575,9.678,21.575,21.575
		s-9.679,21.576-21.575,21.576S1.251,34.722,1.251,22.825C1.251,10.928,10.928,1.25,22.824,1.25z"/>
	<path style="fill:#010002;" d="M19.972,22.868c0.003,0.042,0.021,0.079,0.032,0.118c0.009,0.033,0.012,0.066,0.026,0.098
		c0.033,0.071,0.078,0.135,0.134,0.189c0.002,0.002,0.003,0.006,0.006,0.008c0.008,0.007,0.019,0.01,0.026,0.017
		c0.051,0.043,0.106,0.082,0.169,0.107c0.073,0.029,0.151,0.044,0.229,0.044c0.015,0,0.03,0,0.044-0.002l4.379-0.309
		c0.002,0,0.002-0.001,0.003-0.001l14.29-1.01c0.313-0.022,0.562-0.274,0.579-0.586c0.019-0.314-0.199-0.593-0.508-0.651
		l-14.936-2.823L21.2,5.76c-0.079-0.299-0.362-0.502-0.686-0.46c-0.311,0.041-0.545,0.308-0.545,0.62v16.905
		c0,0.008,0.004,0.016,0.005,0.023C19.975,22.855,19.972,22.861,19.972,22.868z M34.405,21.222l-8.96,0.633l-0.646-2.449
		L34.405,21.222z M21.22,10.739l2.956,11.206l-2.956,0.208V10.739z"/>
</g>
<g>
</g>
<g>
</g>
<g>
</g>
<g>
</g>
<g>
</g>
<g>
</g>
<g>
</g>
<g>
</g>
<g>
</g>
<g>
</g>
<g>
</g>
<g>
</g>
<g>
</g>
<g>
</g>
<g>
</g>
</svg>
